<?xml version="1.0" encoding="UTF-8"?>
<svg id="Layer_1" xmlns="http://www.w3.org/2000/svg" version="1.1" viewBox="0 0 512 512">
  <!-- Generator: Adobe Illustrator 30.7.0, SVG Export Plug-In . SVG Version: 2.1.4 Build 114)  -->
  <defs>
    <style>
      .st0 {
        stroke-width: .59px;
      }

      .st0, .st1 {
        stroke: #000;
        stroke-miterlimit: 10;
      }

      .st1 {
        stroke-width: .66px;
      }

      .st2 {
        fill: #fff;
      }
    </style>
  </defs>
  <path class="st1" d="M256.65,504.76c-136.81,0-248.11-111.3-248.11-248.11S119.84,8.54,256.65,8.54s248.11,111.3,248.11,248.11-111.3,248.11-248.11,248.11ZM256.65,52.28c-112.69,0-204.37,91.68-204.37,204.37s91.68,204.37,204.37,204.37,204.37-91.68,204.37-204.37S369.34,52.28,256.65,52.28Z"/>
  <g>
    <path class="st0" d="M194.26,92.71c-14.83-10.61-68.88-1.49-68.88-1.49,0,0,22.34,19.29,41.01,55.07,16.34,33.79,29.32,76.5,31.23,86.37.54,2.79,1.04,5.53,1.52,8.23-3.25-.71-71.74-14.7-102.32,55.39-22.13,50.72,3.86,94.1,12.99,105.92,9.41,12.6,24.07,24.99,42.19,28.95,7.47,1.63,26.29,3.26,47.28-5.66,22.08-9.38,44.19-31.5,54.5-78.19,23.83-107.92-44.7-243.97-59.54-254.58ZM143.1,322.71c9.91-43.79,56.18-74.36,56.18-74.36,0,0,2.27,9.01,4.28,22.83,4.8,43.27,1.15,72.43-4.31,90.93-1.04,3.52-2.28,6.86-3.66,10.04-1.82,4.07-3.81,7.82-5.9,11.29-15,24.41-33.79,25.98-33.79,25.98,0,0-26.73-25.18-12.8-86.71Z"/>
    <path class="st0" d="M259.61,347.29c10.31,46.69,32.43,68.81,54.5,78.19,20.99,8.92,39.82,7.3,47.28,5.66,18.12-3.96,32.77-16.35,42.19-28.95,9.13-11.82,35.12-55.2,12.99-105.92-30.58-70.08-99.07-56.09-102.32-55.39.48-2.71.98-5.44,1.52-8.23,1.91-9.86,14.89-52.58,31.23-86.37,18.67-35.78,41.01-55.07,41.01-55.07,0,0-54.04-9.12-68.88,1.49-14.83,10.61-83.37,146.66-59.54,254.58ZM352.4,409.42s-18.79-1.57-33.79-25.98c-2.09-3.47-4.08-7.22-5.9-11.29-1.38-3.18-2.62-6.52-3.66-10.04-5.46-18.5-9.11-47.66-4.31-90.93,2.01-13.82,4.28-22.83,4.28-22.83,0,0,46.27,30.57,56.18,74.36,13.93,61.54-12.8,86.71-12.8,86.71Z"/>
  </g>
  <g>
    <path class="st2" d="M77.34,94.27l8.42-8.35c1.9-1.88,3.49-3.17,4.78-3.87,1.73-.93,3.57-1.37,5.52-1.31,1.95.06,3.9.57,5.85,1.54,1.94.96,3.98,2.51,6.1,4.65,1.86,1.88,3.24,3.73,4.12,5.55,1.08,2.23,1.59,4.38,1.55,6.45-.03,1.57-.5,3.25-1.43,5.03-.7,1.33-1.9,2.84-3.6,4.53l-8.67,8.6-22.63-22.82ZM85.78,93.56l14.99,15.12,3.44-3.41c1.29-1.27,2.14-2.27,2.57-2.98.56-.93.87-1.86.92-2.79.05-.94-.28-2.07-.98-3.4-.7-1.33-1.93-2.88-3.68-4.64-1.75-1.76-3.25-2.96-4.5-3.6-1.25-.64-2.41-.94-3.5-.91-1.08.03-2.15.37-3.2,1.04-.79.49-2.12,1.67-4,3.53l-2.07,2.05Z"/>
    <path class="st2" d="M126.87,71.81c-1.7-2.8-2.7-5.4-3.02-7.81-.22-1.78-.13-3.55.28-5.32.41-1.77,1.09-3.31,2.05-4.63,1.27-1.76,3.03-3.32,5.27-4.68,4.05-2.45,8.05-3.16,12.01-2.12,3.95,1.04,7.29,3.8,10,8.27,2.69,4.44,3.59,8.64,2.69,12.61-.89,3.97-3.36,7.18-7.4,9.62-4.09,2.48-8.09,3.2-12.02,2.17-3.92-1.03-7.21-3.73-9.86-8.11ZM132.47,68.15c1.89,3.11,4.04,5.03,6.45,5.77,2.41.73,4.72.43,6.94-.91,2.21-1.34,3.55-3.24,4-5.69s-.29-5.27-2.22-8.46c-1.91-3.15-4.02-5.08-6.34-5.79s-4.63-.38-6.91,1.01-3.66,3.29-4.1,5.71c-.45,2.42.29,5.21,2.2,8.37Z"/>
    <path class="st2" d="M181.6,60.75l-9.96-30.28,6.17-2.03,8.26,25.14,15.33-5.04,1.69,5.14-21.49,7.07Z"/>
    <path class="st2" d="M242.91,35.6l6.45,1.38c-.62,3.58-1.97,6.33-4.04,8.24s-4.82,3.03-8.26,3.36c-4.25.41-7.88-.71-10.89-3.35-3.01-2.64-4.76-6.48-5.25-11.51-.51-5.32.47-9.59,2.93-12.8,2.47-3.21,5.94-5.03,10.42-5.46,3.91-.38,7.2.48,9.87,2.55,1.59,1.23,2.87,3.09,3.84,5.58l-6.25,2.14c-.54-1.62-1.45-2.86-2.75-3.7-1.29-.84-2.8-1.18-4.51-1.02-2.37.23-4.21,1.26-5.53,3.11-1.31,1.84-1.79,4.67-1.42,8.48.39,4.05,1.39,6.86,3.01,8.43,1.62,1.58,3.59,2.25,5.92,2.03,1.72-.16,3.14-.85,4.27-2.06,1.13-1.21,1.85-3.01,2.17-5.41Z"/>
    <path class="st2" d="M272.18,47.37l4.14-31.87,23.63,3.07-.7,5.39-17.2-2.23-.92,7.07,16,2.08-.7,5.37-16-2.08-1.13,8.68,17.81,2.31-.7,5.37-24.24-3.15Z"/>
    <path class="st2" d="M314.97,54.94l1.98-5.51,22.95-13.9-14.09-5.07,1.84-5.11,22.14,7.97-1.71,4.74-23.91,14.44,17.21,6.19-1.83,5.1-24.57-8.84Z"/>
    <path class="st2" d="M355.52,71.48l3.09-4.98,25.34-8.82-12.73-7.89,2.87-4.62,19.99,12.4-2.66,4.29-26.39,9.15,15.54,9.64-2.86,4.6-22.19-13.76Z"/>
    <path class="st2" d="M414.55,118.15l-5.05-4.94,3.1-7.18-9.18-8.98-7,3.36-4.92-4.82,31.43-14.22,4.91,4.8-13.28,31.97ZM414.91,100.71l5.18-11.62-11.44,5.49,6.27,6.13Z"/>
  </g>
  <g>
    <path class="st2" d="M154.42,467.83l7.87-17.88,5.4,2.38-2.12,13.62,8.57-10.78,5.41,2.38-7.87,17.88-3.35-1.47,6.19-14.07-9.74,12.51-3.48-1.53,2.66-15.63-6.19,14.07-3.35-1.48Z"/>
    <path class="st2" d="M187.19,470.77c.54-1.92,1.28-3.44,2.22-4.58.7-.84,1.52-1.53,2.48-2.08.95-.55,1.92-.89,2.91-1.01,1.31-.17,2.73-.03,4.26.4,2.77.78,4.74,2.27,5.92,4.45,1.18,2.19,1.33,4.81.47,7.87-.86,3.04-2.35,5.18-4.48,6.43-2.13,1.25-4.58,1.48-7.34.7-2.8-.79-4.78-2.27-5.95-4.44-1.17-2.17-1.33-4.75-.49-7.74ZM191.14,471.75c-.6,2.13-.56,3.88.11,5.26.67,1.38,1.77,2.28,3.28,2.7,1.51.43,2.91.23,4.19-.58,1.28-.82,2.22-2.31,2.84-4.49.61-2.15.59-3.89-.06-5.22s-1.75-2.21-3.31-2.65c-1.56-.44-2.98-.26-4.24.54-1.26.8-2.2,2.29-2.81,4.45Z"/>
    <path class="st2" d="M215.98,487.88l2.78-19.33,3.8.55,6.05,14.05,1.86-12.91,3.63.52-2.78,19.33-3.92-.56-5.98-13.73-1.81,12.61-3.63-.52Z"/>
    <path class="st2" d="M250.08,491.29l.36-16.22-5.79-.13.07-3.3,15.52.34-.07,3.3-5.78-.13-.36,16.22-3.94-.09Z"/>
    <path class="st2" d="M272.53,491.04l-1.9-19.44,8.26-.81c2.08-.2,3.6-.18,4.58.08.98.26,1.79.8,2.44,1.64.65.84,1.04,1.83,1.15,2.98.14,1.46-.17,2.7-.93,3.74-.76,1.03-1.99,1.76-3.67,2.17.9.41,1.65.89,2.26,1.43.61.54,1.46,1.52,2.54,2.94l2.75,3.56-4.69.46-3.25-3.95c-1.16-1.41-1.94-2.3-2.35-2.66s-.83-.59-1.26-.69c-.43-.11-1.09-.11-2-.03l-.8.08.8,8.11-3.92.39ZM275.36,479.43l2.9-.28c1.88-.18,3.05-.38,3.5-.58s.79-.52,1.02-.93.31-.91.25-1.5c-.06-.65-.29-1.17-.68-1.53-.39-.37-.9-.57-1.55-.62-.32-.01-1.28.06-2.87.22l-3.06.3.48,4.93Z"/>
    <path class="st2" d="M302.22,487.19l-4.31-19.05,14.12-3.2.73,3.22-10.28,2.33.96,4.22,9.56-2.16.73,3.21-9.56,2.16,1.17,5.19,10.64-2.41.73,3.21-14.49,3.28Z"/>
    <path class="st2" d="M346.33,474.09l-4.03,1.46-3.12-3.59-7.34,2.66v4.72s-3.94,1.43-3.94,1.43l.49-20.95,3.92-1.42,14.01,15.69ZM336.87,469.3l-5-5.9v7.71s5-1.82,5-1.82Z"/>
    <path class="st2" d="M357.61,468.97l-8.76-17.28,3.52-1.78,7.27,14.34,8.75-4.43,1.49,2.93-12.26,6.22Z"/>
  </g>
</svg>